<svg width="38" height="38" viewBox="0 0 38 38" fill="none" xmlns="http://www.w3.org/2000/svg">
<g clip-path="url(#clip0_1_140)">
<mask id="mask0_1_140" style="mask-type:alpha" maskUnits="userSpaceOnUse" x="5" y="0" width="28" height="39">
<path fill-rule="evenodd" clip-rule="evenodd" d="M21.4702 0.0957351C21.856 0.230522 22.1929 0.498522 22.4321 0.86076C22.6713 1.223 22.8003 1.66058 22.8002 2.10987V12.6661H30.4002C30.7478 12.666 31.0887 12.7717 31.3859 12.9719C31.6831 13.1721 31.9253 13.459 32.0859 13.8014C32.2466 14.1439 32.3196 14.5288 32.2971 14.9141C32.2746 15.2995 32.1574 15.6706 31.9582 15.9871L18.6582 37.0997C18.4268 37.4682 18.0955 37.745 17.7127 37.8898C17.3299 38.0347 16.9154 38.04 16.5297 37.9051C16.1439 37.7701 15.807 37.5019 15.5679 37.1395C15.3288 36.7771 15.2 36.3393 15.2002 35.8899V25.3337H7.60025C7.2527 25.3338 6.91177 25.2281 6.61456 25.0279C6.31735 24.8277 6.07524 24.5408 5.91459 24.1983C5.75393 23.8559 5.68088 23.471 5.70339 23.0857C5.7259 22.7003 5.8431 22.3292 6.04225 22.0127L19.3422 0.900123C19.5741 0.532314 19.9054 0.256217 20.2881 0.111941C20.6708 -0.0323339 21.0849 -0.0372713 21.4702 0.0978465V0.0957351Z" fill="#006FFD"/>
</mask>
<g mask="url(#mask0_1_140)">
<rect width="38" height="38" fill="#FFCC00"/>
</g>
</g>
<defs>
<clipPath id="clip0_1_140">
<rect width="38" height="38" fill="white"/>
</clipPath>
</defs>
</svg>
